# xmcd
#
# Track frame offsets: 
#        150
#        13095
#        37195
#        57335
#        67973
#        81306
#        93664
#        101767
#        119442
#        132081
#        151223
#        171258
#        194143
#
# Disc length: 2656 seconds
#
# Revision: 0
# Processed by: cddbd v1.5.2PL0 Copyright (c) Steve Scherf et al.
# Submitted via: ExactAudioCopyFreeDBPlugin 1.0
#
DISCID=ba0a5e0d
DTITLE=Willie Nelson - The Very Best of Willie Nelson - Live
DYEAR=2010
DGENRE=Country
TTITLE0=I Gotta Get Drunk
TTITLE1=Medley: MR. Record Man, Hello Walls, One Day at a Time
TTITLE2=Medley: The Last Letter, Half a Man
TTITLE3=Touch Me
TTITLE4=Willie Nelson and Waylon Jennings - Good Hearted Woman
TTITLE5=Funny How Time Slips Away
TTITLE6=Crazy
TTITLE7=Night Life
TTITLE8=Blue Eyes Crying in the Rain
TTITLE9=Georgia on my Mind
TTITLE10=Angel Flying to Close to the Ground
TTITLE11=On the Road Again
TTITLE12=Data
EXTD=
EXTT0=
EXTT1=
EXTT2=
EXTT3=
EXTT4=
EXTT5=
EXTT6=
EXTT7=
EXTT8=
EXTT9=
EXTT10=
EXTT11=
EXTT12=
PLAYORDER=
